<svg id="Layer_1" enable-background="new 0 0 512 512"  fill="#fff" height="512" viewBox="0 0 512 512" width="512" xmlns="http://www.w3.org/2000/svg"><g><path d="m510.519 251.397c-124.408-174.919-384.441-175.184-509.038 0-1.975 2.776-1.975 6.498 0 9.273 124.407 174.918 384.567 175.007 509.038 0 1.975-2.776 1.975-6.497 0-9.273zm-492.634 4.636c117.854-159.08 357.185-160.687 476.229 0-117.855 159.081-357.183 160.687-476.229 0z"/><path d="m256 152.033c-57.346 0-104 46.654-104 104s46.654 104 104 104 104-46.654 104-104-46.654-104-104-104zm0 192c-48.523 0-88-39.477-88-88s39.477-88 88-88 88 39.477 88 88-39.477 88-88 88z"/><path d="m256 208.033c-26.467 0-48 21.533-48 48s21.533 48 48 48 48-21.533 48-48-21.533-48-48-48zm0 80c-17.645 0-32-14.355-32-32s14.355-32 32-32 32 14.355 32 32-14.355 32-32 32z"/></g></svg>