<svg id="Capa_1" enable-background="new 0 0 510 510" height="512"  fill="#fff" viewBox="0 0 510 510" width="512" xmlns="http://www.w3.org/2000/svg"><g><path d="m323 153.29c-10.685 13.695-15.117 19.218-25 32.61v-66.9c0-65.77-53.22-119-119-119-65.617 0-119 53.383-119 119v391h263c70.03 0 127-56.97 127-127 0-61.183-89.706-181.909-127-229.71zm-233 326.71v-361c0-49.075 39.925-89 89-89 49.19 0 89 39.802 89 89v109.36c-23.655 35.032-56.582 87.74-67.92 128.64-1.95-.99-3.98-1.84-6.08-2.55v-283.45h-30v73h-33v30h33v34h-33v30h33v34h-33v30h33v52.45c-18.59 6.28-32 23.87-32 44.55 0 39.135 45.115 60.842 75.69 37.2 7.84 16.94 19.31 31.87 33.41 43.8zm106-81c0 9.37-7.63 17-17 17s-17-7.63-17-17 7.63-17 17-17 17 7.63 17 17zm127 81c-53.49 0-97-43.51-97-97 0-41.26 61.93-133.27 97-180.53 35.07 47.26 97 139.271 97 180.53 0 53.49-43.51 97-97 97z"/><path d="m266.941 356h118.119v30h-118.119z" transform="matrix(.474 -.881 .881 .474 -155.211 482.143)"/><circle cx="370.5" cy="407.5" r="14.5"/><circle cx="282.5" cy="335.5" r="14.5" fill="#fff"/></g></svg>