<svg id="Capa_1" enable-background="new 0 0 512 512" height="512"  fill="#fff" viewBox="0 0 512 512" width="512" xmlns="http://www.w3.org/2000/svg"><g><path d="m510.456 11.061c-.115-4.06-3.457-7.301-7.538-7.272-42.705.379-85.761 2.118-128.147 8.474-67.612 9.746-134.668 32.512-189.91 73.473-1.201.889-2.685 2.006-4.176 3.144-11.663-20.518-26.46-39.531-40.481-55.51-39.932-45.517-26.317-43.675-72.188.679-29.189 31.217-62.382 78.312-62.778 122.392.529 36.014 22.657 68.906 53.597 85.03-6.768 35.263-4.042 71.618 7.287 105.5 6.486 20.281 14.129 40.467 21.974 60.011-13.162 12.388-26.321 24.761-39.465 37.118-12.476 11.657-30.002 29.145-42.551 41.164-14.554 15.074 7.083 36.372 21.929 21.93 6.977-7.215 23.895-24.679 30.678-31.847 79.522-79.835 159.841-161.172 237.559-242.603 20.552-21.356 40.714-43.158 60.005-65.675 5.845-7.018-4.308-15.648-10.364-9.346-6.731 7.115-13.532 14.164-20.408 21.143-70.033 69.695-142.074 138.277-214.209 206.285-5.304-9.345-10.362-18.672-14.977-28.116-2.944-5.938-5.661-11.939-8.181-17.983-11.226-27.955-20.748-60.876-8.646-89.751 8.216 2.035 16.785 2.936 25.533 2.498 32.758 1.524 65.361-15.382 83.146-42.891 21.609-33.447 16.463-70.283.71-104.233 21.148-16.572 44.515-30.215 69.202-40.91 12.615-5.513 25.545-10.346 38.684-14.577 62.067-19.931 127.335-24.237 192.262-24.102-1.616 113.283-30.212 244.67-107.147 329.358-49.866 55.033-111.809 93.202-188.41 79.098-10.709-1.98-14.745 13.394-4.375 16.935 45.058 14.879 95.754 8.142 137.453-13.646 23.639-12.356 44.939-28.87 63.959-47.433 24.023-22.56 44.364-49.205 60.205-78.063 37.575-68.587 51.77-146.541 58.088-223.528 1.944-25.544 2.319-51.154 1.68-76.746zm-332.609 181.475c-13.09 26.642-42.472 43.923-72.249 41.783-49.406 1.889-82.515-54.677-66.075-98.747 14.279-39.16 39.105-73.107 67.459-103.342 40.961 42.399 95.329 100.848 70.865 160.306z"/></g></svg>