<?xml version="1.0" encoding="UTF-8"?>
<svg xmlns="http://www.w3.org/2000/svg"  fill="#fff" viewBox="0 0 64 64" width="512" height="512"><g id="Layer_23" data-name="Layer 23"><path d="M26.949,16a9.942,9.942,0,0,0-2.211-5.324L23.364,12.05,21.95,10.636l1.374-1.374A9.945,9.945,0,0,0,18,7.051V9H16V7.051a9.945,9.945,0,0,0-5.324,2.211l1.374,1.374L10.636,12.05,9.262,10.676A9.942,9.942,0,0,0,7.051,16H9v2H7.051a9.942,9.942,0,0,0,2.211,5.324l1.374-1.374,1.414,1.414-1.374,1.374A9.945,9.945,0,0,0,16,26.949V25h2v1.949a9.922,9.922,0,0,0,2.338-.531A9.98,9.98,0,0,1,26.8,18.985c.065-.325.118-.653.151-.985H25V16Zm-7.656,4.707L18.285,19.7A2.951,2.951,0,0,1,17,20a3,3,0,0,1-3-3,2.961,2.961,0,0,1,.319-1.319l-.026.026-3-3,1.414-1.414,3,3-.026.026A2.961,2.961,0,0,1,17,14a3,3,0,0,1,3,3,2.951,2.951,0,0,1-.3,1.285l1.008,1.008Z"/><path d="M19.956,28.62a12.1,12.1,0,1,1,8.936-10.09c.3-.029.6-.048.908-.048a9.2,9.2,0,0,1,1.1.085A14,14,0,1,0,16.769,30.988,7.587,7.587,0,0,1,19.956,28.62Z"/><path d="M56.045,30.147a1,1,0,0,1-.818-1.316,12.317,12.317,0,0,0,.662-4C55.889,18.306,50.834,13,44.622,13S33.355,18.306,33.355,24.827h-2a14.341,14.341,0,0,1,.575-4.03,7.314,7.314,0,0,0-2.13-.315,7.905,7.905,0,0,0-7.689,8.087c0,.217.008.431.024.644a1,1,0,0,1-.847,1.062A5.875,5.875,0,0,0,17,36.052,5.809,5.809,0,0,0,22.645,42h32.71a5.975,5.975,0,0,0,.69-11.853Zm-10.4-13.085a8.211,8.211,0,0,0-7.735,5.426l-1.884-.67a10.214,10.214,0,0,1,9.619-6.756Z"/><path d="M36.073,49.571A1.707,1.707,0,0,0,35,51.156v.137A1.707,1.707,0,0,0,36.707,53h.137a1.707,1.707,0,0,0,1.585-1.073L40,48Z"/><path d="M27,60.156v.137A1.707,1.707,0,0,0,28.707,62h.137a1.707,1.707,0,0,0,1.585-1.073L32,57l-3.927,1.571A1.707,1.707,0,0,0,27,60.156Z"/><path d="M24.073,49.571A1.707,1.707,0,0,0,23,51.156v.137A1.707,1.707,0,0,0,24.707,53h.137a1.707,1.707,0,0,0,1.585-1.073L28,48Z"/><path d="M48,51.156v.137A1.707,1.707,0,0,0,49.707,53h.137a1.707,1.707,0,0,0,1.585-1.073L53,48l-3.927,1.571A1.707,1.707,0,0,0,48,51.156Z"/><path d="M39,60.156v.137A1.707,1.707,0,0,0,40.707,62h.137a1.707,1.707,0,0,0,1.585-1.073L44,57l-3.927,1.571A1.707,1.707,0,0,0,39,60.156Z"/></g></svg>
