<svg height="512" viewBox="0 0 64 64" width="512"  fill="#fff" xmlns="http://www.w3.org/2000/svg"><g id="Layer_23" data-name="Layer 23"><circle cx="17" cy="17" fill="#97a6bf" r="15"/><circle cx="17" cy="17" fill="#d5ddeb" r="11"/><ellipse cx="18" cy="17" fill="#dfe5f0" rx="10" ry="10.95"/><path d="m33.18 20.2a12.3 12.3 0 0 1 11.442-8.2c6.775 0 12.267 5.743 12.267 12.828a13.345 13.345 0 0 1 -.716 4.328 6.85 6.85 0 0 1 5.827 6.896 6.8 6.8 0 0 1 -6.644 6.948h-32.712a6.8 6.8 0 0 1 -6.644-6.948 6.9 6.9 0 0 1 5.111-6.763h.027q-.027-.355-.027-.718a8.894 8.894 0 0 1 8.689-9.088 8.344 8.344 0 0 1 3.381.713z" fill="#b3dafe"/><path d="m16.08 37.078a6.743 6.743 0 0 0 6.564 5.922h32.712a6.744 6.744 0 0 0 6.568-5.952 6.793 6.793 0 0 0 -5.751-5.892 13.31 13.31 0 0 0 .492-1.913c-.162-.034-.325-.066-.492-.087a13.262 13.262 0 0 0 .671-3.252 12.5 12.5 0 0 0 -12.222-11.904 12.3 12.3 0 0 0 -11.442 8.2 8.339 8.339 0 0 0 -3.38-.713 8.894 8.894 0 0 0 -8.689 9.086q0 .363.027.718h-.027a6.839 6.839 0 0 0 -5.031 5.787z" fill="#c4e2ff"/><path d="m32.394 24.827a1.01 1.01 0 0 1 -1-1.1 14.277 14.277 0 0 1 .5-2.822 1.01 1.01 0 0 1 1.319-.691.985.985 0 0 1 .62 1.181 12.225 12.225 0 0 0 -.451 2.542.985.985 0 0 1 -.988.89z" fill="#b3dafe"/><g fill="#c4e2ff"><path d="m40 48-3.927 1.571a1.707 1.707 0 0 0 -1.073 1.585v.137a1.707 1.707 0 0 0 .5 1.207 1.707 1.707 0 0 0 1.207.5h.137a1.707 1.707 0 0 0 1.585-1.073z"/><path d="m32 57-3.927 1.571a1.707 1.707 0 0 0 -1.073 1.585v.137a1.707 1.707 0 0 0 .5 1.207 1.707 1.707 0 0 0 1.207.5h.137a1.707 1.707 0 0 0 1.585-1.073z"/><path d="m28 48-3.927 1.571a1.707 1.707 0 0 0 -1.073 1.585v.137a1.707 1.707 0 0 0 .5 1.207 1.707 1.707 0 0 0 1.207.5h.137a1.707 1.707 0 0 0 1.585-1.073z"/><path d="m53 48-3.927 1.571a1.707 1.707 0 0 0 -1.073 1.585v.137a1.707 1.707 0 0 0 .5 1.207 1.707 1.707 0 0 0 1.207.5h.137a1.707 1.707 0 0 0 1.585-1.073z"/><path d="m44 57-3.927 1.571a1.707 1.707 0 0 0 -1.073 1.585v.137a1.707 1.707 0 0 0 .5 1.207 1.707 1.707 0 0 0 1.207.5h.137a1.707 1.707 0 0 0 1.585-1.073z"/></g><circle cx="17" cy="17" fill="#97a6bf" r="2"/><ellipse cx="17.5" cy="17" fill="#bac5d9" rx="1.5" ry="1.929"/><path d="m57.441 28.4a14.407 14.407 0 0 0 .448-3.575c0-7.625-5.952-13.825-13.267-13.825a13.21 13.21 0 0 0 -11.68 7.288c.034-.428.058-.858.058-1.288a16 16 0 1 0 -17.369 15.931 8.214 8.214 0 0 0 -.631 3.121 7.809 7.809 0 0 0 7.645 7.948h32.71a7.809 7.809 0 0 0 7.645-7.948 7.921 7.921 0 0 0 -5.559-7.652zm-54.441-11.4a14 14 0 1 1 27.9 1.567 9.2 9.2 0 0 0 -1.1-.085c-.306 0-.608.019-.908.048a12.04 12.04 0 1 0 -8.936 10.09 7.587 7.587 0 0 0 -3.187 2.368 14.01 14.01 0 0 1 -13.769-13.988zm17.338 9.418a9.922 9.922 0 0 1 -2.338.531v-1.949h-2v1.949a9.945 9.945 0 0 1 -5.324-2.211l1.374-1.374-1.414-1.414-1.374 1.374a9.942 9.942 0 0 1 -2.211-5.324h1.949v-2h-1.949a9.942 9.942 0 0 1 2.211-5.324l1.374 1.374 1.414-1.414-1.374-1.374a9.945 9.945 0 0 1 5.324-2.211v1.949h2v-1.949a9.945 9.945 0 0 1 5.324 2.211l-1.374 1.374 1.414 1.414 1.374-1.374a9.942 9.942 0 0 1 2.211 5.324h-1.949v2h1.947c-.033.332-.086.66-.151.985a9.98 9.98 0 0 0 -6.458 7.433zm35.017 15.582h-32.71a5.809 5.809 0 0 1 -5.645-5.948 5.875 5.875 0 0 1 4.288-5.777 1 1 0 0 0 .847-1.062c-.016-.213-.024-.427-.024-.644a7.905 7.905 0 0 1 7.689-8.087 7.314 7.314 0 0 1 2.13.315 14.341 14.341 0 0 0 -.575 4.03h2c0-6.521 5.055-11.827 11.267-11.827s11.267 5.306 11.267 11.827a12.317 12.317 0 0 1 -.662 4 1 1 0 0 0 .818 1.316 5.975 5.975 0 0 1 -.69 11.857z"/><path d="m36.026 21.818 1.884.67a8.211 8.211 0 0 1 7.735-5.426v-2a10.214 10.214 0 0 0 -9.619 6.756z"/><path d="m20 17a3 3 0 0 0 -3-3 2.961 2.961 0 0 0 -1.319.319l.026-.026-3-3-1.414 1.414 3 3 .026-.026a2.961 2.961 0 0 0 -.319 1.319 3 3 0 0 0 3 3 2.951 2.951 0 0 0 1.285-.3l1.008 1.008 1.414-1.414-1.007-1.009a2.951 2.951 0 0 0 .3-1.285zm-4 0a1 1 0 1 1 1 1 1 1 0 0 1 -1-1z"/><path d="m39.358 52.3 1.571-3.927a1 1 0 0 0 -1.3-1.3l-3.929 1.569a2.7 2.7 0 0 0 -1.7 2.514v.137a2.707 2.707 0 0 0 2.707 2.707h.137a2.7 2.7 0 0 0 2.514-1.7zm-1.858-.744a.7.7 0 0 1 -.656.444h-.137a.707.707 0 0 1 -.707-.707v-.137a.7.7 0 0 1 .444-.657l1.761-.7z"/><path d="m31.629 56.071-3.929 1.571a2.7 2.7 0 0 0 -1.7 2.514v.137a2.707 2.707 0 0 0 2.707 2.707h.137a2.7 2.7 0 0 0 2.514-1.7l1.571-3.927a1 1 0 0 0 -1.3-1.3zm-2.129 4.485a.7.7 0 0 1 -.656.444h-.137a.707.707 0 0 1 -.707-.707v-.137a.7.7 0 0 1 .444-.657l1.761-.7z"/><path d="m27.358 52.3 1.571-3.927a1 1 0 0 0 -1.3-1.3l-3.929 1.569a2.7 2.7 0 0 0 -1.7 2.514v.137a2.707 2.707 0 0 0 2.707 2.707h.137a2.7 2.7 0 0 0 2.514-1.7zm-1.858-.744a.7.7 0 0 1 -.656.444h-.137a.707.707 0 0 1 -.707-.707v-.137a.7.7 0 0 1 .444-.657l1.761-.7z"/><path d="m52.629 47.071-3.929 1.571a2.7 2.7 0 0 0 -1.7 2.514v.137a2.707 2.707 0 0 0 2.707 2.707h.137a2.7 2.7 0 0 0 2.514-1.7l1.571-3.927a1 1 0 0 0 -1.3-1.3zm-2.129 4.485a.7.7 0 0 1 -.656.444h-.137a.707.707 0 0 1 -.707-.707v-.137a.7.7 0 0 1 .444-.657l1.761-.7z"/><path d="m43.629 56.071-3.929 1.571a2.7 2.7 0 0 0 -1.7 2.514v.137a2.707 2.707 0 0 0 2.707 2.707h.137a2.7 2.7 0 0 0 2.514-1.7l1.571-3.927a1 1 0 0 0 -1.3-1.3zm-2.129 4.485a.7.7 0 0 1 -.656.444h-.137a.707.707 0 0 1 -.707-.707v-.137a.7.7 0 0 1 .444-.657l1.761-.7z"/></g></svg>